<svg xmlns="http://www.w3.org/2000/svg" width="16" height="96" shape-rendering="crispEdges"><rect x="8" y="88" width="4" height="4"/><rect x="0" y="80" width="4" height="4"/><rect x="8" y="80" width="4" height="4"/><rect x="0" y="72" width="4" height="4"/><rect x="8" y="72" width="4" height="4"/><rect x="4" y="68" width="4" height="4"/><rect x="0" y="64" width="4" height="4"/><rect x="8" y="64" width="4" height="4"/><rect x="12" y="60" width="4" height="4"/><rect x="0" y="56" width="4" height="4"/><rect x="8" y="56" width="4" height="4"/><rect x="4" y="52" width="4" height="4"/><rect x="12" y="52" width="4" height="4"/><rect x="0" y="48" width="4" height="4"/><rect x="8" y="48" width="4" height="4"/><rect x="4" y="44" width="4" height="4"/><rect x="12" y="44" width="4" height="4"/><rect x="0" y="40" width="4" height="4"/><rect x="8" y="40" width="4" height="4"/><rect x="12" y="40" width="4" height="4"/><rect x="4" y="36" width="4" height="4"/><rect x="12" y="36" width="4" height="4"/><rect x="0" y="32" width="4" height="4"/><rect x="4" y="32" width="4" height="4"/><rect x="8" y="32" width="4" height="4"/><rect x="12" y="32" width="4" height="4"/><rect x="4" y="28" width="4" height="4"/><rect x="12" y="28" width="4" height="4"/><rect x="0" y="24" width="4" height="4"/><rect x="4" y="24" width="4" height="4"/><rect x="8" y="24" width="4" height="4"/><rect x="12" y="24" width="4" height="4"/><rect x="0" y="20" width="4" height="4"/><rect x="4" y="20" width="4" height="4"/><rect x="12" y="20" width="4" height="4"/><rect x="0" y="16" width="4" height="4"/><rect x="4" y="16" width="4" height="4"/><rect x="8" y="16" width="4" height="4"/><rect x="12" y="16" width="4" height="4"/><rect x="4" y="12" width="4" height="4"/><rect x="8" y="12" width="4" height="4"/><rect x="12" y="12" width="4" height="4"/><rect x="0" y="8" width="4" height="4"/><rect x="4" y="8" width="4" height="4"/><rect x="8" y="8" width="4" height="4"/><rect x="12" y="8" width="4" height="4"/><rect x="0" y="4" width="4" height="4"/><rect x="4" y="4" width="4" height="4"/><rect x="8" y="4" width="4" height="4"/><rect x="12" y="4" width="4" height="4"/><rect x="0" y="0" width="4" height="4"/><rect x="4" y="0" width="4" height="4"/><rect x="8" y="0" width="4" height="4"/><rect x="12" y="0" width="4" height="4"/></svg>
