<svg xmlns="http://www.w3.org/2000/svg" viewBox="0 0 24 24" width="24" height="24" shape-rendering="crispEdges" role="img" aria-label="GetcKo"><title>GetcKo</title><rect width="24" height="24" rx="5.5" fill="#0E0F0C" shape-rendering="geometricPrecision"/><rect x="7" y="6.5" width="4" height="1" fill="#0E0F0C"/><rect x="13" y="6.5" width="4" height="1" fill="#0E0F0C"/><rect x="6" y="7.5" width="1" height="1" fill="#0E0F0C"/><rect x="7" y="7.5" width="4" height="1" fill="#FFFFFF"/><rect x="11" y="7.5" width="2" height="1" fill="#0E0F0C"/><rect x="13" y="7.5" width="4" height="1" fill="#FFFFFF"/><rect x="17" y="7.5" width="1" height="1" fill="#0E0F0C"/><rect x="6" y="8.5" width="1" height="1" fill="#0E0F0C"/><rect x="7" y="8.5" width="1" height="1" fill="#FFFFFF"/><rect x="8" y="8.5" width="2" height="1" fill="#0E0F0C"/><rect x="10" y="8.5" width="1" height="1" fill="#FFFFFF"/><rect x="11" y="8.5" width="2" height="1" fill="#0E0F0C"/><rect x="13" y="8.5" width="1" height="1" fill="#FFFFFF"/><rect x="14" y="8.5" width="2" height="1" fill="#0E0F0C"/><rect x="16" y="8.5" width="1" height="1" fill="#FFFFFF"/><rect x="17" y="8.5" width="1" height="1" fill="#0E0F0C"/><rect x="6" y="9.5" width="1" height="1" fill="#0E0F0C"/><rect x="7" y="9.5" width="1" height="1" fill="#FFFFFF"/><rect x="8" y="9.5" width="2" height="1" fill="#0E0F0C"/><rect x="10" y="9.5" width="1" height="1" fill="#FFFFFF"/><rect x="11" y="9.5" width="2" height="1" fill="#0E0F0C"/><rect x="13" y="9.5" width="1" height="1" fill="#FFFFFF"/><rect x="14" y="9.5" width="2" height="1" fill="#0E0F0C"/><rect x="16" y="9.5" width="1" height="1" fill="#FFFFFF"/><rect x="17" y="9.5" width="1" height="1" fill="#0E0F0C"/><rect x="5" y="10.5" width="1" height="1" fill="#0E0F0C"/><rect x="6" y="10.5" width="1" height="1" fill="#39D86F"/><rect x="7" y="10.5" width="4" height="1" fill="#FFFFFF"/><rect x="11" y="10.5" width="2" height="1" fill="#39D86F"/><rect x="13" y="10.5" width="4" height="1" fill="#FFFFFF"/><rect x="17" y="10.5" width="1" height="1" fill="#39D86F"/><rect x="18" y="10.5" width="1" height="1" fill="#0E0F0C"/><rect x="4" y="11.5" width="1" height="1" fill="#0E0F0C"/><rect x="5" y="11.5" width="14" height="1" fill="#39D86F"/><rect x="19" y="11.5" width="1" height="1" fill="#0E0F0C"/><rect x="4" y="12.5" width="1" height="1" fill="#0E0F0C"/><rect x="5" y="12.5" width="1" height="1" fill="#39D86F"/><rect x="6" y="12.5" width="1" height="1" fill="#9BF2B6"/><rect x="7" y="12.5" width="10" height="1" fill="#39D86F"/><rect x="17" y="12.5" width="1" height="1" fill="#FF9DB0"/><rect x="18" y="12.5" width="1" height="1" fill="#39D86F"/><rect x="19" y="12.5" width="1" height="1" fill="#0E0F0C"/><rect x="4" y="13.5" width="1" height="1" fill="#0E0F0C"/><rect x="5" y="13.5" width="2" height="1" fill="#39D86F"/><rect x="7" y="13.5" width="1" height="1" fill="#0E0F0C"/><rect x="8" y="13.5" width="8" height="1" fill="#39D86F"/><rect x="16" y="13.5" width="1" height="1" fill="#0E0F0C"/><rect x="17" y="13.5" width="2" height="1" fill="#39D86F"/><rect x="19" y="13.5" width="1" height="1" fill="#0E0F0C"/><rect x="4" y="14.5" width="1" height="1" fill="#0E0F0C"/><rect x="5" y="14.5" width="3" height="1" fill="#39D86F"/><rect x="8" y="14.5" width="8" height="1" fill="#0E0F0C"/><rect x="16" y="14.5" width="3" height="1" fill="#39D86F"/><rect x="19" y="14.5" width="1" height="1" fill="#0E0F0C"/><rect x="5" y="15.5" width="1" height="1" fill="#0E0F0C"/><rect x="6" y="15.5" width="12" height="1" fill="#39D86F"/><rect x="18" y="15.5" width="1" height="1" fill="#0E0F0C"/><rect x="6" y="16.5" width="2" height="1" fill="#0E0F0C"/><rect x="8" y="16.5" width="8" height="1" fill="#39D86F"/><rect x="16" y="16.5" width="2" height="1" fill="#0E0F0C"/></svg>
